<?xml version="1.0" encoding="UTF-8" standalone="no"?>
<svg
   version="1.1"
   viewBox="1674 373 299.80455 82.47"
   width="299.80455"
   height="82.47"
   id="svg8"
   xmlns:xlink="http://www.w3.org/1999/xlink"
   xmlns="http://www.w3.org/2000/svg"
   xmlns:svg="http://www.w3.org/2000/svg">
  <defs
     id="defs4">
    <radialGradient
       cx="0"
       cy="0"
       r="1"
       id="Gradient"
       gradientUnits="userSpaceOnUse">
      <stop
         offset="0"
         stop-color="#2e2977"
         id="stop1" />
      <stop
         offset=".57"
         stop-color="#6655f2"
         id="stop2" />
      <stop
         offset="1"
         stop-color="#818cf8"
         id="stop3" />
    </radialGradient>
    <radialGradient
       id="Obj_Gradient"
       xlink:href="#Gradient"
       gradientTransform="translate(1715.7262 414.235) scale(58.66349)" />
    <radialGradient
       id="Obj_Gradient_2"
       xlink:href="#Gradient"
       gradientTransform="translate(1715.8225 418.24) scale(17.697986)" />
  </defs>
  <g
     id="Canvas_2"
     fill-opacity="1"
     stroke-dasharray="none"
     stroke-opacity="1"
     stroke="none"
     fill="none">
    <g
       id="Canvas_2_图层_2">
      <title
         id="title5">图层 2</title>
      <g
         id="Group_101">
        <g
           id="Graphic_103">
          <path
             d="M 1757.1575 423.11 C 1757.0775 422.98 1756.9875 422.85 1756.8875 422.74 L 1746.4975 404.74 L 1751.1675 396.64 C 1751.3575 396.47 1751.5175 396.27 1751.6475 396.05 C 1752.0675 395.32 1752.0575 394.43 1751.6475 393.7 L 1745.6975 383.49 C 1745.2775 382.77 1744.5075 382.33 1743.6775 382.33 L 1722.7075 382.35 L 1717.9475 374.17 C 1717.5275 373.45 1716.7575 373 1715.9175 373 L 1705.0275 373 C 1704.1875 373 1703.4175 373.45 1702.9975 374.17 C 1702.9175 374.3 1702.8575 374.45 1702.8075 374.59 L 1692.4275 392.58 L 1682.7475 392.58 C 1682.5675 392.54 1682.3875 392.52 1682.2075 392.52 C 1681.3675 392.52 1680.5975 392.97 1680.1775 393.7 L 1674.3075 403.96 C 1673.8975 404.68 1673.8975 405.57 1674.3075 406.3 L 1684.8075 424.45 L 1680.1075 432.65 C 1679.6875 433.37 1679.6975 434.26 1680.1075 434.99 L 1685.5475 444.42 C 1685.9675 445.15 1686.7375 445.59 1687.5775 445.59 C 1687.7375 445.59 1687.8875 445.57 1688.0375 445.54 L 1708.7875 445.54 L 1713.8575 454.3 C 1714.2575 454.99 1714.9775 455.42 1715.7575 455.47 C 1715.8075 455.47 1715.8675 455.47 1715.9175 455.47 L 1727.7375 455.42 C 1728.5675 455.42 1729.3375 454.97 1729.7575 454.25 L 1740.2275 436.08 L 1749.6775 436.05 C 1750.5075 436.05 1751.2775 435.6 1751.6975 434.88 L 1757.1375 425.45 C 1757.5575 424.72 1757.5575 423.83 1757.1375 423.1 Z M 1743.9775 424.23 L 1738.2575 414.33 L 1715.8875 453.13 L 1710.1475 443.2 L 1687.6775 443.2 L 1693.2075 433.62 L 1704.6075 433.62 L 1682.2475 394.93 L 1693.7875 394.93 L 1705.0375 375.44 L 1710.5675 385.02 L 1704.8575 394.91 L 1749.4675 394.89 L 1743.7875 404.73 L 1755.0375 424.22 L 1743.9675 424.22 Z"
             fill="url(#Obj_Gradient)"
             id="path5" />
        </g>
        <g
           id="Graphic_102">
          <path
             d="M 1715.8275 429.83 L 1729.1975 406.65 L 1702.4475 406.67 Z"
             fill="url(#Obj_Gradient_2)"
             id="path6" />
        </g>
      </g>
      <g
         id="Graphic_100">
        <path
           style="font-style:italic;font-size:53px;font-family:'Futura Md BT';-inkscape-font-specification:'Futura Md BT Italic';fill:#5844d0"
           d="m 37.239746,43.716797 h 7.09082 l 2.976075,3.493652 q 2.743164,-2.277344 4.218261,-5.512207 1.500977,-3.234863 1.500977,-6.935547 0,-5.926269 -3.648926,-9.549316 -3.623047,-3.648926 -9.601074,-3.648926 -3.001953,0 -5.615723,1.086914 -2.613769,1.061035 -4.658203,3.157227 -2.277344,2.35498 -3.493652,5.331054 -1.216309,2.976075 -1.216309,6.210938 0,5.848633 3.571289,9.575195 3.571289,3.726563 9.083496,3.726563 1.138672,0 2.354981,-0.181153 1.242187,-0.181152 2.58789,-0.569336 z m 12.939453,15.320312 -4.140625,-4.787597 q -2.199707,0.854004 -4.24414,1.268066 -2.044434,0.439942 -4.03711,0.439942 -8.669433,0 -13.767578,-4.96875 -5.098144,-4.96875 -5.098144,-13.431153 0,-4.606445 1.630371,-8.617676 1.630371,-4.037109 4.684082,-6.961425 2.950195,-2.820801 6.754394,-4.295899 3.830078,-1.475097 8.203613,-1.475097 8.514161,0 13.638184,5.020507 5.124024,5.020508 5.124024,13.379395 0,5.149902 -2.070313,9.549316 -2.070312,4.399414 -5.900391,7.34961 l 6.314454,7.530761 z M 61.358887,30.466797 h 5.615722 l 3.985352,12.52539 q 0.02588,0.07764 0.103516,0.310547 0.724609,2.303223 0.776367,3.416016 0.284668,-0.879883 0.724609,-1.863281 0.46582,-1.009278 1.138672,-2.147949 l 8.229492,-14.052247 4.011231,14.466309 q 0.23291,0.802246 0.388183,1.65625 0.155274,0.854004 0.258789,1.966797 0.388184,-1.086914 0.776367,-1.966797 0.414063,-0.879883 0.802247,-1.526855 l 7.427246,-12.78418 h 6.31445 L 85.270996,56.526855 81.130371,42.811035 q -0.23291,-0.724609 -0.414062,-1.552734 -0.155274,-0.854004 -0.284668,-1.88916 -0.569336,1.190429 -1.009278,2.070312 -0.439941,0.879883 -0.672851,1.242188 l -8.333008,13.845214 z m 47.487793,9.316406 h 12.65478 q -0.0776,-2.484375 -1.55273,-3.907715 -1.44922,-1.449218 -3.90771,-1.449218 -2.79493,0 -4.73584,1.449218 -1.94092,1.449219 -2.4585,3.907715 z m 12.34424,7.686035 4.01123,3.131348 q -2.14795,2.820801 -4.6582,4.114746 -2.51026,1.293945 -5.771,1.293945 -5.46045,0 -8.82471,-3.286621 -3.36426,-3.3125 -3.36426,-8.695312 0,-6.314453 3.85596,-10.351563 3.88184,-4.062988 9.85986,-4.062988 4.99463,0 7.94483,3.105469 2.97607,3.07959 2.97607,8.28125 0,0.439941 -0.0517,1.138672 -0.0259,0.672851 -0.10352,1.630371 h -18.71045 q 0,3.338379 1.68213,5.331054 1.68213,1.966797 4.47705,1.966797 1.94092,0 3.6748,-0.93164 1.75977,-0.95752 3.00196,-2.665528 z M 149.0625,55 150.92578,40.895996 q 0.0518,-0.388184 0.0776,-0.802246 0.0259,-0.439941 0.0259,-1.268066 0,-2.406739 -1.16455,-3.674805 -1.16455,-1.293945 -3.39014,-1.293945 -3.46777,0 -5.43457,2.251464 -1.9668,2.225586 -2.56201,6.857911 L 136.92529,55 h -5.56396 l 3.23486,-24.533203 h 5.35693 l -0.41406,2.950195 q 2.12207,-1.940918 4.37354,-2.872558 2.27734,-0.931641 4.83935,-0.931641 3.77832,0 5.87451,1.992676 2.12208,1.966797 2.12208,5.538086 0,0.905761 -0.10352,2.12207 -0.10352,1.19043 -0.31055,2.794922 L 154.62646,55 Z m 11.25732,0 15.13916,-15.216797 q 5.20166,-5.175781 6.67676,-7.608398 1.50098,-2.458496 1.50098,-4.787598 0,-2.794922 -1.70801,-4.295898 -1.68213,-1.526856 -4.81348,-1.526856 -2.8208,0 -4.70996,1.940918 -1.86328,1.940918 -2.12207,5.20166 h -5.77099 q 0.25879,-5.66748 3.70068,-8.824707 3.46777,-3.157226 9.41992,-3.157226 5.61573,0 8.77295,2.743164 3.15723,2.743164 3.15723,7.55664 0,3.752442 -2.25147,7.427246 -2.25146,3.648926 -10.73974,11.852539 l -3.70069,3.597168 h 14.15577 L 185.96582,55 Z"
           id="text8"
           transform="translate(1762.4525,378)"
           aria-label="Qwen2" />
      </g>
    </g>
  </g>
</svg>
